<svg width="555" height="101" viewBox="0 0 555 101" fill="none" xmlns="http://www.w3.org/2000/svg">
<g clip-path="url(#clip0_1_85)">
<path d="M516.789 82.9825L496.006 35.2434H509.922L524.115 69.481L540.519 35.2434H554.206L521.857 101H507.941L516.789 82.9825ZM466.183 73.0983C467.411 72.8187 468.596 72.377 469.708 71.785C470.782 71.2131 471.781 70.5087 472.68 69.6883C473.578 68.866 474.354 67.9194 474.984 66.8774C475.644 65.7829 476.156 64.6051 476.505 63.3753C476.882 62.0335 477.069 60.6451 477.058 59.2511C477.07 57.842 476.884 56.438 476.505 55.0809C476.156 53.8511 475.644 52.6734 474.984 51.5788C474.35 50.5326 473.575 49.5789 472.68 48.7448C471.792 47.9173 470.791 47.2192 469.708 46.6712C468.588 46.1079 467.405 45.6824 466.183 45.4041C464.898 45.1096 463.584 44.9627 462.266 44.9663C460.955 44.9618 459.649 45.1087 458.372 45.4041C457.165 45.6825 455.996 46.1081 454.893 46.6712C453.814 47.2266 452.814 47.924 451.921 48.7448C451.015 49.5743 450.231 50.5285 449.594 51.5788C448.935 52.6711 448.431 53.8497 448.096 55.0809C447.732 56.4407 447.554 57.8435 447.566 59.2511C447.555 60.6435 447.734 62.0309 448.096 63.3753C448.43 64.6065 448.934 65.7852 449.594 66.8774C450.227 67.9235 451.011 68.8707 451.921 69.6883C452.825 70.502 453.823 71.2057 454.893 71.785C455.988 72.3767 457.159 72.8185 458.372 73.0983C459.649 73.3942 460.955 73.5411 462.266 73.5361C463.584 73.5402 464.898 73.3934 466.183 73.0983M452.151 83.7889C450.018 83.246 447.965 82.4249 446.045 81.3467C442.307 79.2443 439.222 76.1509 437.129 72.4072C436.051 70.4716 435.23 68.4036 434.687 66.2555C433.55 61.6396 433.55 56.8169 434.687 52.201C435.227 50.0594 436.048 47.9987 437.129 46.0723C439.231 42.3418 442.315 39.2582 446.045 37.1558C447.965 36.0778 450.018 35.2567 452.151 34.7135C454.433 34.1349 456.778 33.8484 459.132 33.861C460.403 33.8582 461.673 33.9351 462.934 34.0914C464.094 34.235 465.241 34.4661 466.367 34.7826C467.41 35.0787 468.433 35.4404 469.431 35.8655C470.365 36.2628 471.266 36.7328 472.127 37.271C472.936 37.7777 473.692 38.3643 474.385 39.022C475.032 39.6367 475.633 40.299 476.182 41.0035V35.2434H489.407V83.259H476.182V77.499C475.336 78.5599 474.369 79.5186 473.302 80.356C472.121 81.2828 470.828 82.0569 469.454 82.66C467.926 83.3313 466.325 83.826 464.685 84.1345C462.854 84.4811 460.995 84.6508 459.132 84.6414C456.778 84.6541 454.433 84.3676 452.151 83.7889M404.139 47.4086C406.033 47.4433 407.924 47.2263 409.761 46.7634C411.193 46.4017 412.529 45.7335 413.678 44.805C414.714 43.9403 415.508 42.8208 415.981 41.5564C416.497 40.1237 416.747 38.609 416.719 37.0866C416.748 35.5716 416.498 34.0642 415.981 32.6398C415.507 31.3891 414.713 30.2848 413.678 29.4372C412.523 28.5225 411.188 27.8629 409.761 27.5019C407.923 27.0395 406.033 26.8226 404.139 26.8568H391.144V47.4085L404.139 47.4086ZM377.458 15.521H405.429C409.822 15.521 413.632 16.0586 416.857 17.1338C420.082 18.209 422.74 19.699 424.829 21.6036C426.907 23.4921 428.509 25.8446 429.506 28.4696C430.552 31.2368 431.076 34.1743 431.05 37.1327C431.083 40.0841 430.559 43.0153 429.506 45.7727C428.493 48.3759 426.892 50.7098 424.829 52.5926C422.74 54.5131 420.082 56.0107 416.857 57.0854C413.631 58.1614 409.822 58.699 405.429 58.6982H391.144V83.259H377.458V15.521ZM318.69 35.2434H331.823V41.0034C332.634 39.8854 333.595 38.8852 334.68 38.0312C335.829 37.1303 337.082 36.3721 338.413 35.7733C339.879 35.1175 341.418 34.638 342.998 34.3448C344.753 34.0148 346.535 33.8528 348.32 33.861C351.1 33.8211 353.864 34.2896 356.476 35.2434C358.803 36.1006 360.912 37.4617 362.651 39.2293C364.399 41.0611 365.72 43.256 366.522 45.6575C367.447 48.4189 367.898 51.3166 367.858 54.2284V83.259H354.725V57.6384C354.757 55.7654 354.492 53.8992 353.942 52.1088C353.486 50.6305 352.725 49.2646 351.707 48.0998C350.729 47.0177 349.504 46.1878 348.136 45.6806C346.585 45.1198 344.946 44.8465 343.297 44.8742C341.642 44.8479 339.995 45.1211 338.436 45.6806C337.059 46.1835 335.826 47.0138 334.842 48.0998C333.824 49.2646 333.062 50.6305 332.607 52.1088C332.056 53.8992 331.792 55.7654 331.823 57.6384V83.259H318.69V35.2434ZM286.373 72.9601C287.627 72.657 288.841 72.2085 289.991 71.6236C291.084 71.0645 292.087 70.3419 292.963 69.4809C293.83 68.6313 294.582 67.6706 295.198 66.6239C295.825 65.5459 296.291 64.3815 296.58 63.1679C296.894 61.8548 297.048 60.5089 297.041 59.1589C297.049 57.8165 296.894 56.4781 296.58 55.173C295.999 52.7675 294.744 50.5776 292.963 48.86C292.075 48.0064 291.075 47.2778 289.991 46.6942C288.851 46.0825 287.634 45.6254 286.373 45.3348C285.006 45.0208 283.606 44.8662 282.203 44.874C280.815 44.8678 279.431 45.0224 278.079 45.3348C276.825 45.6227 275.615 46.08 274.485 46.6942C273.41 47.2818 272.418 48.0102 271.536 48.86C270.666 49.6968 269.928 50.6599 269.347 51.7169C268.752 52.8029 268.288 53.9552 267.964 55.15C267.616 56.4576 267.446 57.806 267.457 59.159C267.45 60.5118 267.62 61.8598 267.964 63.168C268.28 64.373 268.744 65.534 269.347 66.624C269.936 67.6763 270.673 68.6384 271.535 69.481C272.406 70.3383 273.4 71.0605 274.485 71.6238C275.625 72.2112 276.832 72.6599 278.079 72.9602C279.429 73.2881 280.814 73.4505 282.203 73.444C283.608 73.4522 285.008 73.2898 286.373 72.9602M274.461 83.7658C272.092 83.2144 269.795 82.387 267.619 81.3005C265.571 80.2799 263.672 78.9855 261.974 77.4528C260.328 75.9638 258.901 74.2496 257.734 72.3611C256.552 70.4386 255.645 68.3602 255.039 66.1863C253.779 61.5861 253.779 56.732 255.039 52.1318C255.642 49.9642 256.55 47.8931 257.734 45.9801C258.909 44.0977 260.335 42.3846 261.974 40.8883C263.668 39.3436 265.567 38.0409 267.619 37.0176C269.795 35.9316 272.092 35.1042 274.461 34.5523C279.588 33.3849 284.911 33.3849 290.037 34.5523C292.393 35.0993 294.675 35.9269 296.833 37.0176C298.876 38.0561 300.774 39.3574 302.478 40.8883C304.142 42.3791 305.592 44.0926 306.787 45.9801C307.985 47.889 308.9 49.961 309.506 52.1318C310.765 56.732 310.765 61.5861 309.506 66.1863C308.898 68.3635 307.982 70.4427 306.787 72.3611C305.6 74.2548 304.15 75.9693 302.478 77.4528C300.769 78.9716 298.872 80.2647 296.833 81.3005C294.682 82.3893 292.408 83.2169 290.06 83.7658C284.926 84.9332 279.595 84.9332 274.461 83.7658M223.215 72.9601C224.469 72.6571 225.683 72.2086 226.832 71.6236C227.926 71.0645 228.928 70.3419 229.804 69.4809C230.672 68.6313 231.424 67.6706 232.039 66.6239C232.668 65.5462 233.133 64.3816 233.422 63.1679C233.735 61.8548 233.89 60.5089 233.883 59.1589C233.891 57.8165 233.736 56.4781 233.422 55.173C232.841 52.7675 231.586 50.5776 229.804 48.86C228.917 48.0064 227.917 47.2778 226.832 46.6942C225.692 46.0824 224.476 45.6253 223.215 45.3348C221.847 45.0208 220.448 44.8662 219.045 44.874C217.657 44.8678 216.273 45.0225 214.921 45.3348C213.666 45.6227 212.457 46.08 211.326 46.6942C210.251 47.282 209.26 48.0103 208.377 48.86C207.508 49.6968 206.77 50.6599 206.188 51.7169C205.594 52.8031 205.13 53.9553 204.806 55.1499C204.458 56.4575 204.287 57.8059 204.299 59.1589C204.291 60.5117 204.462 61.8596 204.806 63.1679C205.122 64.3727 205.586 65.5336 206.188 66.6239C206.777 67.6761 207.515 68.6383 208.377 69.4809C209.248 70.338 210.242 71.0602 211.326 71.6236C212.467 72.2111 213.673 72.6598 214.921 72.9601C216.271 73.2879 217.655 73.4504 219.045 73.4439C220.449 73.4521 221.85 73.2897 223.215 72.9601M211.303 83.7658C208.934 83.2145 206.637 82.3872 204.46 81.3008C202.413 80.28 200.514 78.9856 198.815 77.4531C197.17 75.9638 195.742 74.2497 194.576 72.3613C193.394 70.4389 192.487 68.3605 191.88 66.1865C190.621 61.5864 190.621 56.7322 191.88 52.1321C192.484 49.9645 193.392 47.8933 194.576 45.9803C195.751 44.098 197.177 42.385 198.815 40.8886C200.509 39.3439 202.409 38.0413 204.46 37.0178C206.637 35.9318 208.934 35.1044 211.303 34.5525C216.429 33.3851 221.752 33.3851 226.878 34.5525C229.234 35.0994 231.516 35.9271 233.675 37.0178C235.718 38.0562 237.615 39.3575 239.32 40.8886C240.984 42.3792 242.434 44.0927 243.629 45.9803C244.827 47.8892 245.742 49.9612 246.347 52.1321C247.607 56.7322 247.607 61.5864 246.347 66.1865C245.74 68.3638 244.824 70.443 243.629 72.3613C242.442 74.2551 240.991 75.9697 239.32 77.4531C237.611 78.972 235.714 80.2651 233.675 81.3008C231.524 82.3894 229.25 83.217 226.901 83.7658C221.768 84.9332 216.437 84.9332 211.303 83.7658M107.65 15.521H121.474L145.113 51.6479L168.844 15.521H182.669V83.259H168.983V36.8101L149.352 66.7623H140.966L121.336 36.8101V83.259H107.65V15.521Z" fill="white"/>
<path d="M76.0842 27.6482C78.8184 27.6482 81.4911 26.8374 83.7645 25.3184C86.0378 23.7994 87.8097 21.6404 88.856 19.1143C89.9023 16.5883 90.1761 13.8088 89.6427 11.1271C89.1093 8.44554 87.7927 5.98232 85.8593 4.04899C83.926 2.11565 81.4628 0.799037 78.7812 0.265632C76.0996 -0.267773 73.32 0.00598975 70.794 1.0523C68.2679 2.09861 66.1089 3.87048 64.5899 6.14384C63.0709 8.4172 62.2601 11.0899 62.2601 13.8241C62.26 15.6395 62.6175 17.4372 63.3122 19.1145C64.0069 20.7917 65.0252 22.3157 66.3089 23.5994C67.5926 24.8832 69.1166 25.9014 70.7938 26.5961C72.4711 27.2908 74.2688 27.6483 76.0842 27.6482M33.6961 89.9083C27.0316 89.9084 20.5168 87.9321 14.9755 84.2295C9.43415 80.5269 5.11522 75.2643 2.56483 69.1071C0.0144437 62.9499 -0.652851 56.1747 0.647331 49.6383C1.94751 43.1018 5.15678 37.0978 9.86929 32.3853C14.5818 27.6728 20.5859 24.4635 27.1223 23.1633C33.6588 21.8632 40.434 22.5305 46.5911 25.0809C52.7483 27.6313 58.011 31.9502 61.7135 37.4916C65.4161 43.0329 67.3923 49.5477 67.3923 56.2122C67.3924 60.6373 66.5209 65.0191 64.8276 69.1073C63.1342 73.1956 60.6522 76.9103 57.5232 80.0393C54.3942 83.1683 50.6795 85.6503 46.5912 87.3436C42.503 89.037 38.1212 89.9085 33.6961 89.9083" fill="white"/>
</g>
<defs>
<clipPath id="clip0_1_85">
<rect width="554.206" height="101" fill="white"/>
</clipPath>
</defs>
</svg>
