<svg width="310" height="101" viewBox="0 0 310 101" fill="none" xmlns="http://www.w3.org/2000/svg">
<g clip-path="url(#clip0_1_80)">
<path d="M50.6185 0.00269856C55.2307 0.00269856 59.015 3.78706 59.015 8.39927C59.015 13.0115 55.2307 16.6776 50.6185 16.6776C46.0062 16.6776 42.2219 12.8932 42.2219 8.28101C42.2219 3.6688 46.0062 -0.115563 50.6185 0.00269856ZM55.7036 32.7612C53.2201 28.9769 48.0166 28.9769 45.4149 32.7612C39.62 41.3944 31.1053 55.3491 31.1053 62.9179C31.1053 74.271 39.7382 83.4955 50.3818 83.4955C61.0254 83.4955 69.7768 74.3893 69.7768 63.0362C69.7768 55.3491 61.3802 41.3944 55.7036 32.7612Z" fill="white"/>
<path d="M73.5592 6.50967C71.4306 5.44531 68.947 6.27314 67.8828 8.28359C66.8184 10.294 67.6461 12.8958 69.6567 13.8419C83.7297 21.0559 92.4811 35.3656 92.4811 51.0943C92.4811 58.0717 90.7072 64.6944 87.5142 70.4892C87.9873 68.2422 88.2237 65.9952 88.2237 63.63C88.2237 54.5239 84.9123 45.6543 78.881 38.7952C77.3437 37.0213 74.7418 36.9028 72.9679 38.4403C71.194 39.9778 71.0758 42.5795 72.6133 44.3534C77.3437 49.6752 79.9454 56.5343 79.9454 63.63C79.8272 79.2407 67.4097 91.8946 51.9174 92.6041C51.4443 92.6041 50.853 92.6041 50.3799 92.6041C49.9069 92.6041 49.3155 92.6041 48.8427 92.6041C33.3502 91.7764 20.9328 79.004 21.0511 63.3935C21.0511 56.6527 23.2979 50.3847 27.5556 45.1812C28.9746 43.4072 28.7382 40.8056 26.9642 39.2681C25.1903 37.849 22.4702 38.0855 21.0511 39.8594C15.4928 46.6004 12.5362 54.8788 12.5362 63.3935C12.5362 65.7588 12.7728 68.124 13.1275 70.371C10.0527 64.5762 8.27881 57.9535 8.27881 50.976C8.39707 35.2474 17.1484 21.0559 31.3398 13.9602C33.4686 12.8958 34.2964 10.4123 33.232 8.40186C32.1676 6.39141 29.6841 5.56357 27.5556 6.50967C10.644 14.9063 0.000485011 31.9359 0.000485011 50.8578C-0.117777 77.7032 21.4058 99.818 48.3696 100.882C48.9609 100.882 49.6704 100.882 50.2617 101.001C78.1715 101.119 100.878 78.7676 100.996 51.2127C100.996 32.2908 90.589 15.261 73.5592 6.50967Z" fill="white"/>
<path d="M131.625 50.0325L145.58 35.7228H152.794L136.593 51.9246L152.913 71.556H145.699L132.808 55.5907L131.744 56.6551V71.4378H126.304V35.7228H131.744V50.0325H131.625ZM179.758 40.808H165.449V49.4412H179.403V54.5265H165.449V66.4709H179.758V71.556H160.008V35.7228H179.758V40.808ZM201.4 56.3004L212.517 71.556H205.894L195.605 56.8917H194.659V71.556H189.219V35.7228H195.605C200.336 35.7228 203.765 36.6688 205.894 38.4427C208.259 40.4533 209.324 43.055 209.324 46.2482C209.324 48.7316 208.614 50.9787 207.195 52.7526C205.776 54.5265 203.765 55.7091 201.4 56.3004ZM194.659 52.1613H196.433C201.518 52.1613 204.12 50.1507 204.12 46.2482C204.12 42.5819 201.637 40.6897 196.669 40.6897H194.777V52.1613H194.659ZM220.322 71.556V33.2394L246.458 60.5578V35.7228H251.899V73.6848L225.762 46.3664V71.4378L220.322 71.556ZM282.527 40.808H268.217V49.4412H282.173V54.5265H268.217V66.4709H282.527V71.556H262.779V35.7228H282.527V40.808ZM297.429 35.7228V66.4709H307.954V71.556H291.989V35.7228H297.429Z" fill="white"/>
</g>
<defs>
<clipPath id="clip0_1_80">
<rect width="309.886" height="101" fill="white"/>
</clipPath>
</defs>
</svg>
