<svg width="328" height="101" viewBox="0 0 328 101" fill="none" xmlns="http://www.w3.org/2000/svg">
<path d="M34.4465 46.1531L40.3578 54.9295H49.6144L39.0572 40.2951L48.9641 26.5784H40.2744L34.6715 34.7419L28.95 26.6263H19.9165L29.8359 40.6247L19.4914 54.9295H28.6418L34.4465 46.1531Z" fill="white"/>
<path fill-rule="evenodd" clip-rule="evenodd" d="M81.1514 26.582H67.3337V54.9261H81.1514C84.0779 54.9782 86.98 54.3827 89.6496 53.1824C92.0048 52.1233 94.0066 50.4107 95.4172 48.2474C96.7529 45.9761 97.4571 43.3889 97.4571 40.7539C97.4571 38.119 96.7529 35.5318 95.4172 33.2604C94.0066 31.0974 92.0048 29.3846 89.6496 28.3257C86.98 27.1251 84.0779 26.5297 81.1514 26.582ZM86.8818 46.4685C85.1962 47.9066 83.0238 48.6441 80.811 48.5293H75.6017V32.9788H80.811C83.0254 32.8672 85.1983 33.6091 86.8818 35.0518C88.3403 36.5946 89.1531 38.6371 89.1531 40.7601C89.1531 42.8832 88.3403 44.9259 86.8818 46.4685Z" fill="white"/>
<path d="M141.755 54.9295V48.7313H126.708V43.5466H139.453V37.561H126.708V32.7768H141.218V26.5784H118.72V54.9295H141.755Z" fill="white"/>
<path d="M173.096 39.0103V32.7768H187.826V26.5784H164.791V54.9295H173.096V45.2087H186.067V39.0103H173.096Z" fill="white"/>
<path d="M216.177 26.5784H207.316V54.9295H216.177V26.5784Z" fill="white"/>
<path d="M29.0031 93.9124L37.2107 69.1052H33.8777L27.1141 89.3851L20.3508 69.1052H17.1365L10.2295 89.2752L3.61121 69.1052H0L8.19524 93.9124H12.0103L18.7011 74.1075L25.3937 93.9124H29.0031Z" fill="white"/>
<path fill-rule="evenodd" clip-rule="evenodd" d="M57.4695 87.7158H70.0412L72.6408 93.9124H76.1935L65.4448 69.1052H62.1012L51.3863 93.9124H54.8683L57.4695 87.7158ZM63.7721 72.7075L68.8806 84.8807H58.676L63.7721 72.7075Z" fill="white"/>
<path d="M97.2494 69.1052H93.9128V93.9124H109.86V90.8326H97.2494V69.1052Z" fill="white"/>
<path d="M134.46 69.1052H131.124V93.9124H147.071V90.8326H134.46V69.1052Z" fill="white"/>
<path d="M184.281 93.9124V90.8326H170.05V82.8235H182.245V79.8165H170.05V72.1972H183.79V69.1052H166.563V93.9124H184.281Z" fill="white"/>
<path d="M200.23 72.1972H208.322L208.299 93.9124H211.627V72.1972H219.721V69.1052H200.23V72.1972Z" fill="white"/>
<path d="M260.394 63.4101C270.698 63.9362 280.869 61.475 288.47 56.698H288.472L293.628 59.8395C284.861 66.1458 272.503 69.5746 260.077 68.9403C249.869 68.4388 241.358 64.6168 236.131 58.1916C231.35 52.3141 229.52 44.6824 230.702 36.1061C231.113 33.2067 231.965 30.3868 233.227 27.7445L233.416 27.351C244.443 5.78296 269.05 -4.81309 292.048 2.10082C315.049 9.01335 329.953 31.4902 327.559 55.6508C325.165 79.813 306.149 98.8453 282.251 101L281.778 95.5175C303.062 93.5861 319.995 76.6324 322.13 55.112C324.265 33.5954 311.002 13.5724 290.52 7.39368C270.044 1.21845 248.113 10.6294 238.266 29.823L238.124 30.1205C237.104 32.2486 236.418 34.5186 236.081 36.8574C235.091 43.8939 236.553 50.0088 240.329 54.6442C244.624 59.8271 251.729 62.9813 260.394 63.4101Z" fill="white"/>
<path d="M307.432 47.8423C309.877 47.8423 311.86 45.859 311.86 43.4126C311.86 40.9661 309.877 38.9828 307.432 38.9828C304.986 38.9828 303.002 40.9661 303.002 43.4126C303.002 45.859 304.986 47.8423 307.432 47.8423Z" fill="white"/>
<path d="M264.239 76.2201C283.358 75.2154 294.883 67.8511 299.841 63.7898L304.774 66.5914C300.349 70.6525 287.653 80.1591 264.546 81.3746C262.747 81.5093 261.018 81.5093 259.377 81.5093C239.285 81.5093 230.732 74.9939 230.353 74.6927L232.311 72.4746L233.833 70.7092C233.914 70.7749 242.834 77.3364 264.239 76.2201Z" fill="white"/>
<path d="M298.12 78.6795C302.249 76.1799 305.89 72.9516 308.867 69.1517L308.856 69.1056L313.632 71.8363C309.491 77.6465 294.656 93.9128 257.945 93.9128C255.835 93.9132 253.723 93.863 251.616 93.7622L251.889 88.4058C264.907 89.0453 283.502 87.8581 298.12 78.6795Z" fill="white"/>
</svg>
