<svg width="481" height="101" viewBox="0 0 481 101" fill="none" xmlns="http://www.w3.org/2000/svg">
<path d="M85.0876 30.8552C83.0073 29.5741 80.3028 29.5741 78.0145 30.8552L61.7873 40.6775L50.7613 47.0834L34.5344 56.9059C32.4541 58.187 29.7495 58.187 27.4612 56.9059L14.5626 49.2189C12.4823 47.9378 11.026 45.5889 11.026 43.0263V27.8656C11.026 25.3034 12.2743 22.9545 14.5626 21.6734L27.2529 14.1997C29.3335 12.9186 32.0378 12.9186 34.3264 14.1997L47.0167 21.6734C49.097 22.9545 50.5533 25.3034 50.5533 27.8656V37.6882L61.5793 31.0686V21.2463C61.5793 18.6841 60.3313 16.3352 58.0427 15.0541L34.5344 0.96084C32.4541 -0.32028 29.7495 -0.32028 27.4612 0.96084L3.53657 15.0541C1.2483 16.3352 0 18.6841 0 21.2463V49.6459C0 52.2082 1.2483 54.557 3.53657 55.8382L27.4612 69.9311C29.5415 71.2125 32.2461 71.2125 34.5344 69.9311L50.7613 60.3222L61.7873 53.703L78.0145 44.0941C80.0948 42.813 82.7994 42.813 85.0876 44.0941L97.7779 51.5678C99.8585 52.8489 101.315 55.1978 101.315 57.76V72.9207C101.315 75.4829 100.067 77.8318 97.7779 79.1129L85.0876 86.8003C83.0073 88.0814 80.3028 88.0814 78.0145 86.8003L65.3242 79.3266C63.2436 78.0455 61.7873 75.6966 61.7873 73.1341V63.3118L50.7613 69.9311V79.7537C50.7613 82.3159 52.0096 84.6648 54.2981 85.9459L78.2225 100.039C80.3028 101.32 83.0073 101.32 85.2956 100.039L109.22 85.9459C111.301 84.6648 112.757 82.3159 112.757 79.7537V51.3541C112.757 48.7918 111.509 46.443 109.22 45.1618L85.0876 30.8552Z" fill="white"/>
<path fill-rule="evenodd" clip-rule="evenodd" d="M267.618 4.1427V72.6017H254.557V4.1427H267.618ZM156.683 91.9182V68.341C159.22 71.5604 163.824 73.3595 169.18 73.3595C182.804 73.3595 192.013 63.6067 192.013 48.7408C192.013 33.8748 183.556 24.122 170.307 24.122C164.2 24.122 159.501 26.3945 156.683 30.0874V24.8795H143.621V91.9182H156.683ZM167.582 61.997C160.535 61.997 155.931 56.6945 155.931 48.7408C155.931 40.6923 160.535 35.3898 167.582 35.3898C174.442 35.3898 179.14 40.6923 179.14 48.7408C179.14 56.6945 174.442 61.997 167.582 61.997ZM221.668 73.3595C236.232 73.3595 246.664 62.9439 246.664 48.7408C246.664 34.5377 236.232 24.122 221.668 24.122C207.104 24.122 196.674 34.5377 196.674 48.7408C196.674 62.9439 207.104 73.3595 221.668 73.3595ZM221.668 61.997C214.621 61.997 209.828 56.5998 209.828 48.7408C209.828 40.787 214.621 35.3898 221.668 35.3898C228.715 35.3898 233.508 40.787 233.508 48.7408C233.508 56.5998 228.715 61.997 221.668 61.997ZM306.888 24.8802L297.022 55.6536L287.06 24.8802H273.719L290.914 72.2239L283.961 91.9188H296.457L303.129 72.4132L320.324 24.8802H306.888ZM343.939 24.122C349.671 24.122 354.367 26.2999 357 29.6139V24.8795H370.155V75.4426C370.155 85.3848 363.012 91.9182 352.3 91.9182H328.433V81.5973H350.233C354.181 81.5973 357.094 78.4726 357.094 74.0223V67.7729C354.648 71.2763 349.671 73.3595 344.125 73.3595C330.124 73.3595 321.763 63.6067 321.763 48.7408C321.763 33.8748 330.124 24.122 343.939 24.122ZM334.635 48.7408C334.635 56.7892 339.24 61.997 346.193 61.997C353.241 61.997 357.846 56.7892 357.846 48.7408C357.846 40.6923 353.241 35.3898 346.193 35.3898C339.24 35.3898 334.635 40.6923 334.635 48.7408ZM403.078 73.3595C417.644 73.3595 428.072 62.9439 428.072 48.7408C428.072 34.5377 417.644 24.122 403.078 24.122C388.515 24.122 378.083 34.5377 378.083 48.7408C378.083 62.9439 388.515 73.3595 403.078 73.3595ZM403.078 61.997C396.03 61.997 391.239 56.5998 391.239 48.7408C391.239 40.787 396.03 35.3898 403.078 35.3898C410.126 35.3898 414.917 40.787 414.917 48.7408C414.917 56.5998 410.126 61.997 403.078 61.997ZM448.386 46.4683V72.602H435.23V24.8795H448.386V31.5077C451.015 26.868 456.276 24.122 462.759 24.122C473.472 24.122 480.425 31.8864 480.425 42.8701V72.602H467.269V45.8055C467.269 40.0295 463.605 35.8633 458.157 35.8633C452.426 35.8633 448.386 40.3136 448.386 46.4683Z" fill="white"/>
</svg>
