<svg width="821" height="101" viewBox="0 0 821 101" fill="none" xmlns="http://www.w3.org/2000/svg">
<path d="M100.5 50.4998C100.5 78.1142 78.1142 100.5 50.4998 100.5C22.8857 100.5 0.5 78.1142 0.5 50.4998C0.5 22.8858 22.8857 0.5 50.4998 0.5C78.1142 0.5 100.5 22.8858 100.5 50.4998Z" stroke="white"/>
<path d="M48.9192 56.8142C51.534 56.8142 53.6536 54.6945 53.6536 52.0801C53.6536 49.4654 51.534 47.3457 48.9192 47.3457C46.3044 47.3457 44.1848 49.4654 44.1848 52.0801C44.1848 54.6945 46.3044 56.8142 48.9192 56.8142Z" fill="white"/>
<path d="M44.1885 31.5654C45.9318 31.5654 47.3447 30.1525 47.3447 28.4096C47.3447 26.6663 45.9318 25.2533 44.1885 25.2533C42.4451 25.2533 41.0322 26.6663 41.0322 28.4096C41.0322 30.1525 42.4451 31.5654 44.1885 31.5654Z" fill="white"/>
<path d="M74.1724 53.6587C73.2353 53.6587 72.3195 53.8439 71.5409 54.1914C70.7619 54.5385 70.1551 55.0319 69.7972 55.609C69.4392 56.1861 69.346 56.8212 69.5296 57.4339C69.7135 58.046 70.1656 58.6085 70.8284 59.0496C71.492 59.4908 72.3367 59.7906 73.2558 59.9115C74.1749 60.0327 75.1271 59.9688 75.9918 59.7287C76.8566 59.4887 77.5955 59.0831 78.1144 58.5629C78.633 58.0431 78.9089 57.4322 78.9064 56.8074C78.9035 55.9715 78.4034 55.1712 77.516 54.5803C76.6283 53.9903 75.4261 53.6587 74.1724 53.6587Z" fill="white"/>
<path d="M66.8872 41.1239C69.2314 33.9825 68.9395 28.3519 65.5779 26.1587C61.8358 23.7496 55.5198 26.3401 48.938 32.4537C48.4161 31.9703 47.8942 31.5212 47.3811 31.0809C47.1135 31.6801 46.7288 32.2224 46.2488 32.6782C46.6736 33.0412 47.1332 33.4125 47.5229 33.8098C45.8323 35.5088 44.2378 37.296 42.7458 39.1635C39.4285 39.3943 36.136 39.8853 32.8999 40.6317C30.9006 34.5177 30.9625 29.7164 33.5634 28.0241C34.1432 27.6937 34.7867 27.4838 35.4533 27.4081C36.1202 27.3324 36.796 27.3922 37.438 27.5833C37.6392 26.9076 37.9792 26.2791 38.4375 25.7355C35.9959 24.9928 33.8642 25.0877 32.2453 26.1587C28.8837 28.3519 28.5917 33.9825 30.936 41.1239C23.5582 43.1875 18.9316 46.5466 18.9316 50.5191C18.9316 54.4912 23.5582 57.8248 30.9449 59.8972C30.7414 60.5186 30.5556 61.1317 30.3875 61.7275H30.6795C31.2575 61.7263 31.8315 61.8195 32.3779 62.0044C32.5284 61.4775 32.6875 60.9418 32.8646 60.3978C36.1143 61.13 39.4181 61.6092 42.7458 61.8312C44.2437 63.6996 45.844 65.4868 47.5405 67.185C41.8346 72.4271 36.4738 74.8708 33.5634 72.9799C33.077 72.6541 32.672 72.2263 32.3779 71.7275C31.6365 71.9759 30.8461 72.0532 30.0691 71.952C30.472 73.1212 31.2507 74.1332 32.2895 74.8361C35.9959 77.2886 42.3122 74.6981 48.938 68.5411C55.5198 74.6981 61.8358 77.2886 65.5779 74.8361C68.9395 72.6428 69.2314 67.0127 66.8872 59.8713C67.5771 59.6811 68.2408 59.4828 68.8776 59.2667C68.4783 58.7477 68.1789 58.1627 67.9928 57.5397C67.4032 57.7295 66.8136 57.911 66.2235 58.0837C65.2241 55.4936 64.042 52.975 62.685 50.5446C64.0403 48.1113 65.2229 45.5894 66.2235 42.9976C72.5399 44.7247 76.5915 47.4879 76.5915 50.5446C76.5898 51.0891 76.4627 51.6264 76.2201 52.1165C76.8536 52.5756 77.3759 53.1653 77.7502 53.8435C78.4849 52.8822 78.8876 51.7184 78.9001 50.5191C78.9001 46.5466 74.2736 43.1875 66.8872 41.1239ZM48.938 35.1479C50.1235 36.3313 51.3265 37.6268 52.4765 39.0167C51.3085 38.9649 50.1147 38.939 48.938 38.939C47.7613 38.939 46.5319 38.939 45.3995 39.0167C46.5319 37.6268 47.7261 36.3313 48.938 35.1479ZM41.1359 41.1928C40.4455 42.1166 39.7643 43.0666 39.0923 44.051C38.0662 45.5363 37.1283 47.0216 36.2613 48.481C35.2302 46.5198 34.3174 44.5013 33.528 42.4365C36.0278 41.8682 38.5634 41.4613 41.1183 41.2188L41.1359 41.1928ZM31.5907 58.0406C25.2744 56.3136 21.2228 53.5504 21.2228 50.502C21.2228 47.4536 25.2744 44.7246 31.5907 42.9541C32.5881 45.548 33.7704 48.0695 35.1292 50.502C33.7692 52.9298 32.5865 55.4493 31.5907 58.0406ZM33.5104 58.5328C34.2997 56.4675 35.2125 54.449 36.2436 52.4878C37.1284 53.9472 38.0131 55.4325 39.0744 56.9178C39.7468 57.911 40.4279 58.861 41.1271 59.776C38.5625 59.5263 36.0183 59.1107 33.5104 58.5328ZM40.6755 55.8729C39.4461 54.0681 38.3225 52.2461 37.3231 50.5191C38.3317 48.7403 39.449 46.9472 40.6755 45.1391C41.6665 43.6884 42.681 42.3156 43.7189 41.0201C45.3995 40.9077 47.1424 40.8474 48.9204 40.8474C50.6984 40.8474 52.4589 40.9077 54.1219 41.0201C55.1481 42.324 56.1655 43.6968 57.1561 45.1391C58.383 46.9472 59.5003 48.7403 60.5089 50.5191C59.5003 52.2892 58.3859 54.0856 57.1561 55.8904C56.1655 57.3151 55.1301 58.6883 54.1219 60.0181C52.4351 60.1272 50.7014 60.1849 48.9204 60.1908C47.1512 60.1908 45.3819 60.1302 43.7189 60.0181C42.6869 58.6938 41.6724 57.3122 40.6755 55.8729ZM45.3468 61.978C46.5139 62.0299 47.6994 62.0558 48.8849 62.0558C50.0703 62.0558 51.291 62.0558 52.4233 61.978C51.2379 63.3772 50.0352 64.6727 48.8849 65.8469C47.7261 64.6727 46.5319 63.3772 45.3468 61.978ZM64.3038 72.9707C61.4025 74.862 56.0325 72.4183 50.3267 67.1766C52.0261 65.481 53.6293 63.6967 55.1301 61.8312C58.4466 61.5987 61.7387 61.1108 64.9762 60.3723C66.967 66.4858 66.9047 71.2437 64.3038 72.9707ZM64.3038 58.524C61.799 59.1023 59.2574 59.5176 56.6961 59.7672C57.3865 58.8518 58.0677 57.9022 58.7485 56.9091C59.7659 55.4242 60.7038 53.9388 61.5706 52.4795C62.6081 54.4427 63.5268 56.4641 64.3217 58.5328L64.3038 58.524ZM61.5882 48.5069C60.7038 47.0475 59.819 45.5622 58.7665 44.0769C58.0853 43.0926 57.4041 42.1429 56.7137 41.2188C59.2749 41.4688 61.8169 41.8841 64.3217 42.4624C63.5322 44.5273 62.6194 46.5457 61.5882 48.5069ZM64.9674 40.6317C61.7341 39.8857 58.4445 39.3948 55.1301 39.1635C53.6327 37.2956 52.0319 35.5079 50.3355 33.8098C56.0417 28.5681 61.4113 26.1244 64.313 28.0241C66.9047 29.7164 66.967 34.5177 64.9674 40.6317Z" fill="white"/>
<path d="M34.7181 67.8588C34.7181 66.9226 34.5332 66.0072 34.1863 65.2286C33.8394 64.45 33.3464 63.8432 32.7698 63.4848C32.1931 63.1265 31.5584 63.0328 30.9461 63.2155C30.3339 63.3983 29.7715 63.8491 29.3301 64.511C28.8887 65.1734 28.5881 66.0168 28.4663 66.9355C28.3445 67.8534 28.407 68.8055 28.6459 69.6707C28.8848 70.5359 29.2893 71.2752 29.8084 71.7954C30.3274 72.3156 30.9376 72.5933 31.5619 72.5933C32.3989 72.5933 33.2019 72.0944 33.7937 71.2066C34.3854 70.3189 34.7181 69.1146 34.7181 67.8588Z" fill="white"/>
<path d="M157.993 79.9639C152.439 79.9639 147.439 78.8022 142.995 76.4794C138.602 74.1059 135.143 70.8233 132.617 66.6321C130.092 62.4404 128.83 57.6934 128.83 52.3911C128.83 47.0884 130.092 42.3414 132.617 38.1502C135.143 33.9585 138.602 30.7015 142.995 28.3781C147.439 26.0047 152.439 24.8179 157.993 24.8179C162.842 24.8179 167.21 25.6764 171.098 27.3934C174.987 29.1103 178.219 31.585 180.794 34.817L171.25 43.4525C167.816 39.3114 163.649 37.2411 158.751 37.2411C155.873 37.2411 153.297 37.8721 151.025 39.135C148.803 40.3974 147.061 42.1901 145.798 44.5129C144.586 46.7857 143.98 49.4117 143.98 52.3911C143.98 55.3705 144.586 58.0217 145.798 60.3446C147.061 62.6173 148.803 64.3849 151.025 65.6473C153.297 66.9097 155.873 67.5411 158.751 67.5411C163.649 67.5411 167.816 65.4704 171.25 61.3293L180.794 69.9648C178.219 73.1968 174.987 75.6715 171.098 77.3884C167.21 79.1054 162.842 79.9639 157.993 79.9639ZM212.025 37.1654C217.125 37.1654 221.216 38.6804 224.296 41.7104C227.427 44.7404 228.993 49.3105 228.993 55.4211V78.9034H214.6V57.7691C214.6 52.1636 212.353 49.3611 207.858 49.3611C205.384 49.3611 203.389 50.169 201.874 51.7852C200.41 53.401 199.678 55.8251 199.678 59.057V78.9034H185.285V22.697H199.678V41.6347C201.243 40.1699 203.086 39.0589 205.207 38.3016C207.328 37.5438 209.601 37.1654 212.025 37.1654ZM254.012 37.1654C260.83 37.1654 266.031 38.7306 269.616 41.8618C273.202 44.9424 274.995 49.6894 274.995 56.1027V78.9034H261.587V73.6012C259.517 77.5904 255.476 79.5851 249.467 79.5851C246.285 79.5851 243.533 79.0297 241.21 77.9187C238.887 76.8076 237.12 75.3181 235.908 73.4494C234.746 71.5304 234.165 69.3589 234.165 66.9348C234.165 63.0463 235.655 60.0418 238.635 57.9209C241.614 55.7494 246.21 54.6634 252.421 54.6634H260.602C260.35 50.3204 257.446 48.1489 251.891 48.1489C249.921 48.1489 247.927 48.4771 245.907 49.1336C243.887 49.7396 242.17 50.5985 240.756 51.7091L235.908 41.9375C238.18 40.4225 240.933 39.2608 244.165 38.4529C247.447 37.5945 250.729 37.1654 254.012 37.1654ZM253.482 70.495C255.148 70.495 256.613 70.0911 257.875 69.2832C259.138 68.4753 260.047 67.2886 260.602 65.723V62.1627H254.391C250.199 62.1627 248.104 63.5514 248.104 66.3289C248.104 67.5913 248.583 68.6016 249.543 69.3589C250.502 70.1166 251.815 70.495 253.482 70.495ZM296.275 42.7709C297.74 40.9021 299.633 39.5134 301.956 38.6047C304.33 37.645 307.031 37.1654 310.061 37.1654V50.1184C308.748 49.967 307.663 49.8913 306.804 49.8913C303.724 49.8913 301.3 50.7243 299.532 52.3911C297.815 54.0575 296.957 56.6079 296.957 60.0418V78.9034H282.564V37.847H296.275V42.7709ZM358.279 37.847V71.4041C358.279 79.0297 356.209 84.7364 352.068 88.5237C347.927 92.3616 341.968 94.2805 334.191 94.2805C330.151 94.2805 326.364 93.826 322.828 92.9173C319.293 92.0082 316.289 90.6701 313.813 88.9025L319.041 78.8278C320.707 80.1914 322.803 81.2518 325.328 82.0091C327.904 82.817 330.429 83.2214 332.903 83.2214C336.691 83.2214 339.468 82.388 341.235 80.7216C343.003 79.0548 343.887 76.5805 343.887 73.298V71.9343C341.11 75.1663 337.044 76.7825 331.691 76.7825C328.055 76.7825 324.697 75.9746 321.617 74.3584C318.536 72.6921 316.087 70.3692 314.267 67.3893C312.45 64.3593 311.541 60.8748 311.541 56.9361C311.541 53.0476 312.45 49.6137 314.267 46.6339C316.087 43.6039 318.536 41.281 321.617 39.6652C324.697 37.9984 328.055 37.1654 331.691 37.1654C337.549 37.1654 341.842 39.0588 344.569 42.8466V37.847H358.279ZM335.1 65.3441C337.675 65.3441 339.797 64.5613 341.463 62.9961C343.18 61.4305 344.038 59.4104 344.038 56.9361C344.038 54.4614 343.205 52.4668 341.539 50.9518C339.872 49.3862 337.726 48.6034 335.1 48.6034C332.474 48.6034 330.303 49.3862 328.586 50.9518C326.919 52.4668 326.086 54.4614 326.086 56.9361C326.086 59.4104 326.944 61.4305 328.661 62.9961C330.378 64.5613 332.524 65.3441 335.1 65.3441ZM407.975 58.4511C407.975 58.5519 407.899 59.7386 407.747 62.0114H377.902C378.508 64.1323 379.669 65.7736 381.386 66.9348C383.154 68.0459 385.35 68.6016 387.976 68.6016C389.946 68.6016 391.638 68.3235 393.052 67.7682C394.516 67.2129 395.981 66.3038 397.445 65.0414L405.02 72.9191C401.031 77.3634 395.198 79.5851 387.522 79.5851C382.725 79.5851 378.508 78.6764 374.872 76.8582C371.236 75.04 368.408 72.5152 366.388 69.2832C364.418 66.0512 363.434 62.3898 363.434 58.2993C363.434 54.2595 364.393 50.6486 366.312 47.4673C368.281 44.2353 370.983 41.7104 374.417 39.8923C377.851 38.0741 381.714 37.1654 386.007 37.1654C390.097 37.1654 393.809 38.0239 397.142 39.7409C400.475 41.4073 403.101 43.8564 405.02 47.0884C406.99 50.2702 407.975 54.0575 407.975 58.4511ZM386.083 47.3916C383.861 47.3916 381.992 48.0226 380.477 49.2854C379.013 50.5479 378.079 52.2648 377.675 54.4364H394.491C394.087 52.2648 393.127 50.5479 391.612 49.2854C390.148 48.0226 388.305 47.3916 386.083 47.3916ZM456.729 22.697V78.9034H443.018V74.813C440.342 77.9944 436.327 79.5851 430.975 79.5851C427.236 79.5851 423.828 78.7266 420.747 77.0096C417.669 75.242 415.218 72.7427 413.4 69.5103C411.633 66.2783 410.749 62.5416 410.749 58.2993C410.749 54.0575 411.633 50.3459 413.4 47.1641C415.218 43.9321 417.669 41.4578 420.747 39.7409C423.828 38.0239 427.236 37.1654 430.975 37.1654C435.871 37.1654 439.66 38.5792 442.336 41.4072V22.697H456.729ZM434.002 68.1471C436.478 68.1471 438.523 67.2886 440.141 65.5716C441.755 63.804 442.562 61.3799 442.562 58.2993C442.562 55.2693 441.755 52.8958 440.141 51.1789C438.573 49.4619 436.528 48.6034 434.002 48.6034C431.481 48.6034 429.407 49.4619 427.793 51.1789C426.178 52.8958 425.367 55.2693 425.367 58.2993C425.367 61.3799 426.178 63.804 427.793 65.5716C429.407 67.2886 431.481 68.1471 434.002 68.1471ZM509.924 25.8784C514.72 25.8784 518.889 26.6867 522.423 28.3025C525.956 29.8681 528.687 32.1404 530.602 35.1202C532.521 38.049 533.483 41.5085 533.483 45.4977C533.483 49.4874 532.521 52.9464 530.602 55.8757C528.687 58.8045 525.956 61.0772 522.423 62.693C518.889 64.2586 514.72 65.0414 509.924 65.0414H500.682V78.9034H485.683V25.8784H509.924ZM509.016 53.2241C512.094 53.2241 514.419 52.5676 515.983 51.2545C517.551 49.8913 518.333 47.9724 518.333 45.4977C518.333 43.0235 517.551 41.1041 515.983 39.7409C514.419 38.3772 512.094 37.6956 509.016 37.6956H500.682V53.2241H509.016ZM555.729 37.1654C562.545 37.1654 567.747 38.7306 571.331 41.8618C574.919 44.9424 576.709 49.6894 576.709 56.1027V78.9034H563.302V73.6012C561.232 77.5904 557.193 79.5851 551.184 79.5851C548.002 79.5851 545.25 79.0297 542.925 77.9187C540.604 76.8076 538.836 75.3181 537.623 73.4494C536.46 71.5304 535.883 69.3589 535.883 66.9348C535.883 63.0463 537.372 60.0418 540.349 57.9209C543.331 55.7494 547.926 54.6634 554.136 54.6634H562.32C562.064 50.3204 559.162 48.1489 553.605 48.1489C551.636 48.1489 549.641 48.4771 547.621 49.1336C545.601 49.7396 543.887 50.5985 542.474 51.7091L537.623 41.9375C539.898 40.4225 542.649 39.2608 545.882 38.4529C549.164 37.5945 552.447 37.1654 555.729 37.1654ZM555.198 70.495C556.863 70.495 558.33 70.0911 559.589 69.2832C560.852 68.4753 561.763 67.2886 562.32 65.723V62.1627H556.106C551.916 62.1627 549.821 63.5514 549.821 66.3289C549.821 67.5913 550.297 68.6016 551.259 69.3589C552.217 70.1166 553.53 70.495 555.198 70.495ZM597.989 42.7709C599.452 40.9021 601.347 39.5134 603.672 38.6047C606.043 37.645 608.748 37.1654 611.776 37.1654V50.1184C610.463 49.967 609.38 49.8913 608.518 49.8913C605.44 49.8913 603.015 50.7243 601.246 52.3911C599.532 54.0575 598.67 56.6079 598.67 60.0418V78.9034H584.277V37.847H597.989V42.7709ZM645.789 77.2371C644.576 77.9944 643.088 78.5752 641.319 78.9791C639.6 79.3831 637.76 79.5851 635.791 79.5851C630.434 79.5851 626.319 78.272 623.442 75.6464C620.561 73.0203 619.123 69.1063 619.123 63.9048V50.1184H613.139V39.362H619.123V28.6813H633.516V39.362H642.908V50.1184H633.516V63.7534C633.516 65.2178 633.896 66.3795 634.653 67.238C635.46 68.0459 636.522 68.4498 637.836 68.4498C639.5 68.4498 640.963 68.0208 642.226 67.1623L645.789 77.2371ZM649.824 37.847H664.217V78.9034H649.824V37.847ZM657.021 33.302C654.395 33.302 652.275 32.5698 650.656 31.1054C649.042 29.641 648.235 27.8228 648.235 25.6513C648.235 23.4798 649.042 21.6616 650.656 20.1972C652.275 18.7328 654.395 18.0006 657.021 18.0006C659.647 18.0006 661.767 18.7077 663.385 20.1215C664.999 21.4852 665.806 23.2527 665.806 25.4243C665.806 27.6966 664.999 29.5904 663.385 31.1054C661.767 32.5698 659.647 33.302 657.021 33.302ZM693.037 79.5851C688.492 79.5851 684.427 78.6764 680.839 76.8582C677.256 75.04 674.454 72.5152 672.434 69.2832C670.465 66.0512 669.478 62.3898 669.478 58.2993C669.478 54.2089 670.465 50.573 672.434 47.3916C674.454 44.1596 677.256 41.6598 680.839 39.8923C684.427 38.0741 688.492 37.1654 693.037 37.1654C697.683 37.1654 701.697 38.1753 705.08 40.1954C708.463 42.165 710.863 44.9169 712.277 48.452L701.141 54.1332C699.272 50.4467 696.546 48.6034 692.962 48.6034C690.386 48.6034 688.241 49.4619 686.522 51.1789C684.858 52.8958 684.022 55.2693 684.022 58.2993C684.022 61.3799 684.858 63.804 686.522 65.5716C688.241 67.2886 690.386 68.1471 692.962 68.1471C696.546 68.1471 699.272 66.3038 701.141 62.6173L712.277 68.2984C710.863 71.8336 708.463 74.611 705.08 76.6311C701.697 78.6003 697.683 79.5851 693.037 79.5851ZM716.032 22.697H730.425V78.9034H716.032V22.697ZM780.232 58.4511C780.232 58.5519 780.157 59.7386 780.002 62.0114H750.158C750.764 64.1323 751.927 65.7736 753.641 66.9348C755.41 68.0459 757.606 68.6016 760.232 68.6016C762.201 68.6016 763.895 68.3235 765.308 67.7682C766.772 67.2129 768.239 66.3038 769.703 65.0414L777.276 72.9191C773.287 77.3634 767.453 79.5851 759.78 79.5851C754.98 79.5851 750.764 78.6764 747.131 76.8582C743.493 75.04 740.666 72.5152 738.646 69.2832C736.677 66.0512 735.69 62.3898 735.69 58.2993C735.69 54.2595 736.651 50.6486 738.571 47.4673C740.54 44.2353 743.242 41.7104 746.675 39.8923C750.108 38.0741 753.972 37.1654 758.262 37.1654C762.356 37.1654 766.065 38.0239 769.398 39.7409C772.73 41.4073 775.357 43.8564 777.276 47.0884C779.245 50.2702 780.232 54.0575 780.232 58.4511ZM758.342 47.3916C756.117 47.3916 754.248 48.0226 752.734 49.2854C751.27 50.5479 750.334 52.2648 749.932 54.4364H766.747C766.345 52.2648 765.383 50.5479 763.87 49.2854C762.406 48.0226 760.562 47.3916 758.342 47.3916ZM800.275 79.5851C796.838 79.5851 793.455 79.2066 790.122 78.4489C786.789 77.641 784.113 76.6056 782.093 75.3432L786.413 65.4959C788.278 66.6571 790.502 67.5913 793.078 68.2984C795.654 68.9549 798.205 69.2832 800.726 69.2832C803.051 69.2832 804.691 69.0561 805.652 68.6016C806.66 68.0965 807.166 67.3893 807.166 66.4803C807.166 65.5716 806.56 64.9402 805.347 64.5868C804.189 64.1829 802.32 63.804 799.744 63.4507C796.461 63.0463 793.66 62.5161 791.335 61.8596C789.064 61.2031 787.094 59.9912 785.426 58.2236C783.762 56.4561 782.925 53.9818 782.925 50.8004C782.925 48.1744 783.711 45.8511 785.275 43.8313C786.839 41.7606 789.114 40.1448 792.091 38.9832C795.123 37.7713 798.732 37.1654 802.926 37.1654C805.903 37.1654 808.86 37.4682 811.787 38.0741C814.718 38.6804 817.164 39.5389 819.134 40.65L814.819 50.4216C811.181 48.4014 807.241 47.3916 803.001 47.3916C800.726 47.3916 799.062 47.6692 798 48.2246C796.942 48.7297 796.411 49.4117 796.411 50.2702C796.411 51.2295 796.992 51.9111 798.151 52.3154C799.313 52.6688 801.232 53.0476 803.909 53.4516C807.292 53.9563 810.098 54.5371 812.318 55.1936C814.538 55.8502 816.458 57.0624 818.076 58.8296C819.74 60.5465 820.572 62.9706 820.572 66.1018C820.572 68.6773 819.79 71.0002 818.227 73.0709C816.663 75.0906 814.338 76.6813 811.256 77.843C808.228 79.0046 804.565 79.5851 800.275 79.5851Z" fill="white"/>
</svg>
