<svg width="348" height="101" viewBox="0 0 348 101" fill="none" xmlns="http://www.w3.org/2000/svg">
<path d="M252.137 50.4801C252.137 58.1683 258.379 64.3982 266.077 64.3982C273.775 64.3982 280.018 58.1683 280.018 50.4801C280.018 42.7916 273.775 36.562 266.077 36.562C258.379 36.562 252.137 42.7916 252.137 50.4801Z" fill="white"/>
<path d="M127.467 50.4801C127.467 58.1683 133.706 64.3982 141.407 64.3982C149.108 64.3982 155.351 58.1653 155.351 50.4801C155.351 42.7916 149.105 36.562 141.407 36.562C133.709 36.562 127.467 42.7916 127.467 50.4801Z" fill="white"/>
<path fill-rule="evenodd" clip-rule="evenodd" d="M47.175 0.00318492H327.136V0H345.506L298.33 101H0L47.175 0.00318492ZM206.516 44.2249H231.298C231.76 46.1009 231.941 48.6743 231.941 50.4736C231.941 51.2317 231.891 51.9482 231.843 52.547C230.741 67.1689 218.402 78.6252 203.749 78.6252C188.2 78.6252 175.55 65.997 175.55 50.4768C175.55 34.9567 188.2 22.3317 203.749 22.3317H226.314L219.667 36.562H203.746C203.709 36.562 203.607 36.5644 203.505 36.5668C203.403 36.5691 203.301 36.5715 203.265 36.5715C195.668 36.6894 189.639 42.865 189.639 50.4768C189.639 58.1653 196.048 64.3949 203.746 64.3949C208.239 64.3949 212.24 62.2641 214.807 58.9231C215.233 58.3691 215.718 57.6971 216.03 57.1333C216.53 56.232 216.89 55.2414 217.087 54.133H201.886L206.516 44.2249ZM237.878 50.5214C237.878 35.0013 250.529 22.3731 266.077 22.3731C281.626 22.3731 294.277 35.0013 294.277 50.5214C294.277 66.0415 281.626 78.6665 266.077 78.6665C250.529 78.6665 237.878 66.0415 237.878 50.5214ZM113.208 50.5214C113.208 35.0013 125.858 22.3731 141.407 22.3731C156.956 22.3731 169.606 35.0013 169.606 50.5214C169.606 66.0415 156.956 78.6665 141.407 78.6665C125.858 78.6665 113.208 66.0415 113.208 50.5214ZM87.477 54.133L76.0177 78.6665H75.8362L64.3768 54.133L53.4846 77.4498H37.149L62.8767 22.37H63.1538L75.9285 49.722L88.7033 22.37H88.9804L114.708 77.4498H98.3663L87.477 54.133Z" fill="white"/>
</svg>
