<svg width="505" height="101" viewBox="0 0 505 101" fill="none" xmlns="http://www.w3.org/2000/svg">
<path d="M0 48.7229V97.4343H12.2497H24.4995L24.5225 73.8205L24.557 50.2067L55.4287 75.6033C72.4058 89.5669 86.3693 101 86.4613 101C86.5879 101 86.6109 93.0866 86.6109 52.4036V3.8072H74.3611H62.1114L62.0884 27.214L62.0539 50.6323L32.1484 26.2248C15.7004 12.8018 1.73682 1.41476 1.12721 0.908668L0 1.29547e-06V48.7229Z" fill="white"/>
<path d="M101.909 50.6208V97.4343H114.676H127.443V80.1812V62.928H146.652H165.86V52.116V41.304L146.686 41.281L127.501 41.2465L127.466 34.0232L127.443 26.8114H148.55H169.656V15.3093V3.80718H135.782H101.909V50.6208Z" fill="white"/>
<path d="M173.452 15.3668V26.9264H186.104H198.756V62.1804V97.4343H211.524H224.291V62.1804V26.9264H236.656H249.021V15.3668V3.80718H211.236H173.452V15.3668Z" fill="white"/>
<path d="M260.063 50.6208V97.4343H268.459H276.856V81.0438V64.6533H287.254C293.534 64.6533 298.123 64.6073 298.836 64.5383C305.714 63.8482 311.374 61.2717 316.734 56.3833C322.024 51.5524 325.061 45.7669 326.108 38.486C326.315 37.0828 326.303 31.3777 326.096 29.917C324.958 21.762 321.576 15.8039 315.215 10.6739C310.936 7.2233 306.324 5.14142 300.769 4.12924L299.342 3.86469L279.708 3.83018L260.063 3.80718V50.6208ZM298.572 19.3695C304.323 20.8763 308.187 25.0056 309.372 30.8946C309.671 32.4014 309.671 36.2316 309.361 37.6809C308.717 40.7634 307.44 43.1904 305.392 45.2263C303.138 47.4692 300.458 48.8149 297.214 49.298C296.329 49.436 294.293 49.4705 286.494 49.4705H276.856V34.2302V18.9785L287.127 19.013L297.387 19.059L298.572 19.3695Z" fill="white"/>
<path d="M473.427 16.747V29.6869H469.056H464.685V37.0483V44.4096H469.056H473.427V70.922V97.4343H481.478H489.53V70.922V44.4096H496.891H504.252V37.0483V29.6869H496.891H489.53V16.747V3.80718H481.478H473.427V16.747Z" fill="white"/>
<path d="M365.019 27.8005C364.835 27.8235 364.111 27.9041 363.409 27.9731C357.773 28.5367 352.125 30.561 347.364 33.7241C345.086 35.2539 343.464 36.5766 341.498 38.5435C336.759 43.2594 333.768 48.4813 332.227 54.704C330.202 62.882 331.157 72.2792 334.746 79.4335C338.438 86.8063 345.247 93.2245 352.827 96.4566C359.521 99.3206 367.492 100.206 375.084 98.9296C382.549 97.6643 388.967 94.3862 394.511 88.9917C397.685 85.8862 399.894 82.8611 401.723 79.0884C403.218 75.9944 404.219 72.6818 404.771 69.0241C405.012 67.4253 405.047 66.8502 405.047 63.5606C405.035 60.3285 405.001 59.6729 404.782 58.2121C403.735 51.4834 401.389 46.1694 397.26 41.166C396.213 39.9007 393.568 37.2553 392.279 36.1856C386.781 31.6192 380.823 29.0313 373.473 28.0076C372.22 27.835 365.905 27.674 365.019 27.8005ZM370.31 42.4542C375.613 42.9603 379.777 45.0307 383.526 49.0334C385.045 50.6437 385.976 51.9895 386.931 53.8988C388.449 56.9584 389.116 59.8799 389.116 63.5491C389.116 68.656 387.736 72.9118 384.814 76.788C384.009 77.8692 381.755 80.1466 380.777 80.8828C379.765 81.6534 377.189 83.1602 376.544 83.3672C376.498 83.3902 376.291 83.4707 376.073 83.5628C375.59 83.7583 373.887 84.2759 373.416 84.3679C373.232 84.4024 372.887 84.4599 372.668 84.4829C372.45 84.5174 372.082 84.5979 371.863 84.667C371.61 84.7475 370.264 84.7705 368.182 84.7475C365.18 84.7015 364.789 84.667 363.513 84.4024C357.301 83.0567 352.517 79.445 349.676 73.9585C348.537 71.7731 347.904 69.8982 347.456 67.4138C347.214 66.022 347.249 60.8806 347.525 59.4198C348.433 54.4624 351.021 50.0801 354.955 46.825C358.969 43.5009 364.548 41.9136 370.31 42.4542Z" fill="white"/>
<path d="M450.94 28.4332C446.362 28.6517 442.106 30.009 438.656 32.3669C436.528 33.8162 434.181 36.4272 433.043 38.6011L432.537 39.5672L432.479 34.6558L432.422 29.7444H424.428H416.434L416.399 63.5836L416.376 97.4343H424.428H432.468L432.514 78.0878C432.548 60.7081 432.571 58.6377 432.744 57.8326C433.618 53.6458 435.044 50.8853 437.609 48.4238C438.173 47.8833 439.024 47.1816 439.495 46.8596C441.439 45.5483 444.027 44.5246 446.512 44.0646C449.054 43.593 453.137 43.639 456.266 44.1566L457.439 44.3636V36.5767V28.7898L457.174 28.7207C456.116 28.4562 453.298 28.3297 450.94 28.4332Z" fill="white"/>
</svg>
