<svg width="235" height="101" viewBox="0 0 235 101" fill="none" xmlns="http://www.w3.org/2000/svg">
<path d="M87.9861 82.6199V63.7055C87.9744 60.4951 85.375 57.8953 82.1646 57.884H80.3466V61.6984C80.3537 61.832 80.3537 61.9658 80.3466 62.0994C80.2359 64.2092 78.4363 65.8295 76.3265 65.7186C74.217 65.608 72.5964 63.8084 72.7073 61.6986V57.8843H49.8V61.6986C49.7941 63.8088 48.0851 65.5178 45.9749 65.5238C43.8665 65.5178 42.1605 63.807 42.1605 61.6986V57.884H40.3428C37.1303 57.89 34.5272 60.4928 34.5215 63.7055V82.6199C34.5272 85.8326 37.1303 88.4354 40.3428 88.4414H42.1605V84.6061C42.1665 82.5053 43.8741 80.8067 45.9749 80.8126C48.0794 80.8126 49.7883 82.5122 49.8 84.6164V88.4414H72.7073V84.6164C72.8099 82.6616 74.3717 81.0996 76.3265 80.997C78.4361 80.8866 80.2359 82.5067 80.3466 84.6164V88.4308H82.1646C85.3708 88.4193 87.9688 85.8261 87.9861 82.6199Z" fill="white"/>
<path d="M55.3875 46.7225C55.7343 47.7259 57.8884 50.0631 57.8884 50.0631C51.5718 50.0631 47.5051 48.2814 47.5051 46.4189V41.1698C47.5051 39.9684 48.1146 39.359 49.316 39.359H53.5557C54.7629 39.3532 55.2601 39.7198 55.2661 40.9267C55.2658 40.9265 54.9139 45.3528 55.3875 46.7225Z" fill="white"/>
<path d="M74.9269 39.3589C73.7197 39.3534 73.2225 39.7198 73.2166 40.9267C73.2166 40.9267 73.5685 45.3531 73.0954 46.7223C72.7483 47.7259 70.5942 50.0631 70.5942 50.0631C76.9111 50.0631 80.9775 48.2816 80.9775 46.4188V41.1698C80.9775 39.9684 80.3683 39.3589 79.1668 39.3589H74.9269Z" fill="white"/>
<path d="M45.7986 8.00269C43.4311 8.96343 41.2153 10.2623 39.2207 11.859C37.3146 13.4099 35.6839 15.2712 34.3978 17.3653C33.1141 19.4648 32.207 21.773 31.7183 24.1849C31.6958 24.3153 31.6675 24.4456 31.6393 24.576C31.6017 24.7505 31.5638 24.9249 31.5397 25.0992C31.5176 25.2603 31.4984 25.4244 31.4789 25.5899C31.4614 25.7373 31.444 25.8858 31.4242 26.0343C31.3528 26.4473 31.3106 26.8843 31.2679 27.3258C31.2475 27.5358 31.227 27.7472 31.2034 27.9572L31.1605 28.3142C31.0182 29.4982 30.8758 30.6819 30.6465 31.8664C30.4243 30.7632 30.2848 29.6602 30.145 28.5568C30.1197 28.3576 30.0942 28.1567 30.0685 27.9572L30.0362 27.6306C29.9822 27.0898 29.9285 26.5503 29.9111 25.9818C29.8532 25.3032 29.8532 24.6215 29.9111 23.9432C30.0922 21.1831 30.9472 18.5095 32.4014 16.1567C33.8266 13.7928 35.7932 11.8013 38.1389 10.3459C40.4442 8.91141 43.0847 8.10355 45.7986 8.00269Z" fill="white"/>
<path d="M62.4027 11.6593C64.3334 10.1671 66.4533 8.93753 68.7074 8.00269C66.1248 8.06335 63.6016 8.79081 61.3833 10.1151C59.1078 11.4329 57.1718 13.2646 55.7301 15.4635C54.2745 17.676 53.3439 20.1921 53.0086 22.8191C52.9246 23.46 52.8403 24.1009 52.8614 24.7523C52.8706 25.034 52.8915 25.3156 52.9122 25.5957C52.9395 25.9632 52.9666 26.3279 52.9666 26.6858L53.0015 26.9603C53.1465 28.1076 53.2909 29.2475 53.534 30.4058C53.7863 29.1552 53.9438 27.9256 54.0909 26.6858C54.1308 26.459 54.1586 26.2306 54.1862 26.0031C54.2316 25.6299 54.2768 25.2585 54.3748 24.8995C54.4492 24.6268 54.5048 24.3518 54.5605 24.0765C54.623 23.7685 54.6854 23.4602 54.7742 23.1549C55.4048 20.8998 56.3792 18.7556 57.6638 16.7976C58.9566 14.8409 60.5567 13.1058 62.4027 11.6593Z" fill="white"/>
<path d="M91.6251 8.00269C89.3715 8.93827 87.2514 10.1678 85.3202 11.6593C83.4802 13.109 81.8837 14.8436 80.5918 16.7976C79.3073 18.7556 78.3326 20.8998 77.702 23.1549C77.5976 23.4935 77.529 23.8357 77.4603 24.1773C77.4119 24.4188 77.3635 24.66 77.3026 24.8995C77.2042 25.2858 77.1527 25.6863 77.1013 26.0885C77.0759 26.2873 77.0501 26.4877 77.0187 26.6858L76.9797 26.9941C76.836 28.1299 76.6932 29.259 76.462 30.4058C76.2382 29.34 76.0982 28.2898 75.9575 27.2353C75.9332 27.0528 75.9086 26.8685 75.8838 26.6858C75.8838 26.3219 75.8593 25.951 75.8347 25.5771C75.8166 25.3035 75.7982 25.0275 75.7895 24.7523C75.7686 24.1009 75.842 23.46 75.9261 22.8191C76.2649 20.1911 77.1993 17.6753 78.6581 15.4635C80.1088 13.2782 82.0524 11.4644 84.3325 10.1673C86.5379 8.83323 89.0492 8.08776 91.6251 8.00269Z" fill="white"/>
<path fill-rule="evenodd" clip-rule="evenodd" d="M76.5752 8.52689C81.5965 3.42329 88.4563 0.549671 95.6158 0.551397H99.4827V85.9183C99.4597 93.6832 93.1461 99.9592 85.3813 99.9358H37.0447C33.6218 99.9404 30.3161 98.688 27.7557 96.4155C25.8739 97.2531 23.8369 97.6865 21.7768 97.6869C14.9043 97.6403 8.97952 92.8412 7.50708 86.1281C7.10684 84.3003 7.06764 82.412 7.39141 80.5692H7.19168C4.09835 80.463 1.44987 78.3195 0.700947 75.3163C-0.226019 71.5998 2.03554 67.8359 5.75204 66.909C6.23092 66.7981 6.72116 66.7453 7.21264 66.7513C9.98959 66.7541 12.5 68.4056 13.6015 70.9547C15.1504 69.9126 16.8892 69.1843 18.7187 68.8112C19.7265 68.5932 20.7554 68.4839 21.7869 68.4855H23.0161V27.3363C23.0278 12.5479 35.013 0.562987 49.8008 0.551397H53.6572V8.52689C58.6805 3.42058 65.5451 0.546712 72.7081 0.551397H76.5752V8.52689ZM85.4336 96.0691C91.0499 96.0514 95.5986 91.503 95.6158 85.8867L95.6165 4.4183H95.6059C82.9619 4.42423 72.7149 14.6729 72.709 27.3142V4.4183H72.6987C60.0546 4.42423 49.8077 14.6729 49.8017 27.3142V4.4183H49.7597C37.1083 4.44174 26.871 14.7163 26.8945 27.3677V73.6028C25.3308 72.7514 23.5784 72.307 21.798 72.3104C21.0417 72.3081 20.2875 72.3894 19.5492 72.5521C18.1192 72.8476 16.7666 73.4382 15.5773 74.2857C15.2384 74.5283 14.9122 74.7877 14.6 75.0634C14.3697 75.188 14.1214 75.2766 13.8644 75.3262C13.6508 75.3767 13.4324 75.4013 13.2129 75.3999C11.7646 75.4052 10.5126 74.3906 10.2179 72.9727C9.9114 71.5633 8.66511 70.5574 7.22299 70.5556C7.00426 70.5505 6.78527 70.5716 6.57147 70.6185C5.14489 70.9123 4.12151 72.1686 4.12202 73.625C4.1225 75.3198 5.49681 76.6929 7.19143 76.6922C7.41065 76.6943 7.62963 76.6695 7.84295 76.6185C8.05799 76.5781 8.27573 76.5568 8.49447 76.5557C9.94274 76.5501 11.1947 77.565 11.4894 78.9829C11.552 79.2372 11.5735 79.4998 11.5525 79.7608C11.424 80.1597 11.3222 80.5667 11.248 80.9797C10.9474 82.4072 10.9474 83.8816 11.248 85.3089C12.3162 90.2593 16.6914 93.7943 21.7558 93.7993C22.5185 93.7959 23.2791 93.7146 24.0256 93.5576C25.6673 93.2048 27.2016 92.4664 28.5017 91.4033C30.3735 94.3071 33.5898 96.0638 37.0447 96.0691H85.4336Z" fill="white"/>
<path d="M123.495 62.6891H116.781L116.781 85.9643H123.495V72.8047C123.495 70.2538 125.331 68.3288 127.792 68.3288C130.254 68.3288 132.044 70.2535 132.044 72.8047V85.9645H138.758V71.0147C138.758 68.4631 137.908 66.3598 136.162 64.6588C134.462 62.9579 132.358 62.1074 129.851 62.1074C127.165 62.1074 125.062 63.0922 123.495 65.0617V62.6891Z" fill="white"/>
<path d="M151.068 62.6891H156.126V68.3733H151.068V85.964H144.354V68.3733H140.997V62.6891H144.354V60.0929C144.354 57.8998 145.16 56.0644 146.816 54.5872C148.472 53.1101 150.531 52.3942 152.993 52.3942H156.126V58.6158H153.575C152.142 58.6158 151.068 59.6003 151.068 60.9883V62.6891Z" fill="white"/>
<path d="M160.96 62.6891H157.782V68.5076H160.96V78.5342C160.96 80.6377 161.721 82.4282 163.287 83.8605C164.854 85.2484 166.823 85.9643 169.106 85.9643H172.956V79.698H170.225C168.748 79.698 167.674 78.6687 167.674 77.2363V68.5079H172.955V62.6891H167.674V58.1682H160.96V62.6891Z" fill="white"/>
<path d="M197.089 55.9366C195.339 54.3328 193.25 53.5553 190.772 53.5553C186.642 53.5553 183.241 56.1308 181.686 60.0666L179.839 59.1918C181.637 54.5758 185.767 51.6122 190.772 51.6122C193.833 51.6122 196.408 52.5841 198.546 54.5274C200.684 56.4712 201.753 58.8036 201.753 61.5244C201.753 62.9336 201.365 64.3425 200.636 65.7517C199.907 67.1609 199.178 68.2783 198.352 69.1529C197.574 70.0279 196.408 71.1938 194.854 72.7001L183.095 84.0217H202.434V85.9653H179.888V84.6047L193.202 71.4858L194.32 70.4168L195.534 69.2507L196.555 68.133C197.052 67.6361 197.381 67.2229 197.581 66.972L197.623 66.9183C198.012 66.3839 198.887 65.1689 199.13 64.3917C199.47 63.6142 199.713 62.5452 199.713 61.5735C199.713 59.3862 198.838 57.4911 197.089 55.9366Z" fill="white"/>
<path fill-rule="evenodd" clip-rule="evenodd" d="M209.042 55.0129C206.661 57.2971 205.495 60.1148 205.495 63.4677V74.4487C205.495 77.8015 206.661 80.6196 209.042 82.9033C211.423 85.1869 214.387 86.3047 217.934 86.3047C221.482 86.3047 224.445 85.1869 226.826 82.9033C229.207 80.6194 230.422 77.8015 230.422 74.4487V63.4677C230.422 60.1148 229.207 57.2966 226.826 55.0129C224.445 52.7294 221.482 51.6119 217.934 51.6119C214.387 51.6119 211.423 52.7294 209.042 55.0129ZM210.451 81.5426C208.459 79.6475 207.438 77.2666 207.438 74.4972V63.4188C207.438 60.6491 208.459 58.3172 210.451 56.4221C212.443 54.5269 214.97 53.555 217.934 53.555C220.898 53.555 223.424 54.5267 225.416 56.4221C227.458 58.3172 228.478 60.6496 228.478 63.4188V74.4972C228.478 77.2666 227.457 79.6475 225.416 81.5426C223.424 83.4377 220.898 84.361 217.934 84.361C214.97 84.361 212.443 83.438 210.451 81.5426Z" fill="white"/>
</svg>
