<svg width="830" height="101" viewBox="0 0 830 101" fill="none" xmlns="http://www.w3.org/2000/svg">
<path fill-rule="evenodd" clip-rule="evenodd" d="M536.971 76.4887C541.411 84.0611 547.86 90.3029 555.617 94.55H555.687C571.794 103.15 591.217 103.15 607.324 94.55C615.043 90.2914 621.447 84.0496 625.848 76.4887C634.9 60.2862 634.9 40.6424 625.848 24.4399C621.46 16.8905 615.049 10.6755 607.324 6.47242C591.198 -2.15698 571.742 -2.15698 555.617 6.47242C547.866 10.6902 541.423 16.8994 536.971 24.4399C527.741 40.5964 527.741 60.3322 536.971 76.4887ZM600.639 29.4595C610.22 41.7306 610.22 58.8229 600.639 71.0934V71.2344C590.018 81.7003 572.801 81.7003 562.18 71.2344C557.179 65.4417 554.628 57.9777 555.042 50.3824C555.042 41.5941 557.422 34.6194 562.18 29.4595C572.859 19.1212 589.961 19.1212 600.639 29.4595Z" fill="white"/>
<path d="M111.138 100.903V0.000366211L83.0497 0.0960461L55.7792 70.032L28.2516 0.0960461H0V101H23.9088V40.2896L45.9729 101H65.2583L87.2292 40.4338V100.903H111.138Z" fill="white"/>
<path fill-rule="evenodd" clip-rule="evenodd" d="M168.83 83.1566H206.964L213.089 101H239.362L202.395 0.000366211H173.74L136.773 101H162.73L168.83 83.1566ZM187.812 27.1982L200.572 64.1346L175.295 64.2067L187.812 27.1982Z" fill="white"/>
<path d="M350.515 101H327.232L288.307 38.7038V101H265.024V0.0960461H288.307L327.232 62.6803V0.000366211H350.515V101Z" fill="white"/>
<path d="M410.351 101V0.000366211H384.704V101H410.351Z" fill="white"/>
<path d="M504.4 0.000366211V19.7106H461.598V40.9811H493.633V60.1867H461.598V101H436.012V0.168147L504.4 0.000366211Z" fill="white"/>
<path d="M684.107 82.002H718.119V101H658.273V0.000366211H684.184L684.107 82.002Z" fill="white"/>
<path fill-rule="evenodd" clip-rule="evenodd" d="M823.053 23.92C818.996 16.3349 812.955 10.1639 805.664 6.15601C797.511 1.84386 788.485 -0.261177 779.383 0.0258748H743.769V100.987H779.383C788.479 101.19 797.48 99.019 805.594 94.6648C812.929 90.6499 819.002 84.4413 823.053 76.8044C831.326 60.2722 831.326 40.4523 823.053 23.92ZM805.645 50.2898C805.626 59.633 803.189 66.8444 798.334 71.9246C793.467 77.0207 786.68 79.5844 777.986 79.6169H766.899V20.8913H777.871C786.629 20.8754 793.454 23.4633 798.334 28.6557C803.221 33.7359 805.657 40.9473 805.645 50.2898Z" fill="white"/>
</svg>
