<svg width="177" height="80" viewBox="0 0 177 80" fill="none" xmlns="http://www.w3.org/2000/svg">
<g filter="url(#filter0_d_768_16948)">
<path d="M93.4481 26.0367H95.6682V25.4867L95.1101 24.9316H92.3422L91.7852 25.4867V29.8987L92.3422 30.4487H95.1101L95.6682 29.8987V29.3486H93.4481V28.2437H95.6682V27.1437H93.4481V26.0367Z" fill="white"/>
<path d="M95.2932 20H92.1602V23.12H95.2932V20Z" fill="#3BBFF0"/>
<path d="M89.2 24.9316V27.1427H87.537V24.9316H86.432L85.875 25.4867V29.8987L86.432 30.4487H87.537V28.2427H89.2V30.4487H90.3099L90.8619 29.8987V25.4867L90.3099 24.9316H89.2Z" fill="white"/>
<path d="M80.5228 24.9316L79.9648 25.4867V26.0367H81.6278V29.8977L82.1848 30.4476H82.7378L83.2898 29.8977V26.0367H84.9518V25.4867L84.3988 24.9316H80.5228Z" fill="white"/>
<path d="M80.0586 32.3496V54.4226H95.5746L97.7896 52.2167V34.5607L95.5746 32.3546H80.0586V32.3496ZM86.7086 36.7666H91.1436V50.0117H86.7086V36.7666Z" fill="white"/>
<path d="M100.004 32.3496V54.4226H115.52L117.735 52.2167V45.5936L115.52 43.3877L117.735 41.1816V34.5597L115.52 32.3536H100.004V32.3496ZM106.654 45.5946H111.089V50.0117H106.654V45.5946ZM106.654 41.1776V36.7656H111.089V41.1776H106.654Z" fill="white"/>
<path d="M122.172 32.3496L119.957 34.5557V52.2117L122.172 54.4176H135.472L137.687 52.2117V34.5557L135.472 32.3496H122.172ZM126.602 36.7666H131.037V50.0117H126.602V36.7666Z" fill="white"/>
<path d="M157.629 43.3887L161.815 39.2196L166.001 43.3887L161.815 47.5578L157.629 43.3887Z" fill="#3BBFF0"/>
<path d="M150.979 32.3496V38.9717L148.764 41.1776L146.55 38.9717V32.3496H142.114L139.898 34.5607V41.1776L142.114 43.3887L139.898 45.5946V52.2167L142.114 54.4226H146.55V47.8007L148.764 45.5946L150.979 47.8007V54.4226H155.416L157.631 52.2167V45.5946L155.416 43.3887L157.631 41.1776V34.5607L155.416 32.3496H150.979Z" fill="white"/>
<path d="M71.1973 32.3506V38.9727L64.5473 32.3506H60.1173L57.9023 34.5616V52.2177L60.1173 54.4236H64.5473V41.1786L71.1973 47.8007V54.4226H75.6323L77.8474 52.2167V34.5607L75.6323 32.3496L71.1973 32.3506Z" fill="white"/>
<path d="M53.4603 32.3984H40.1603L37.9453 34.6045V52.2605L40.1603 54.4664H44.5953V45.6384H49.0253V54.4714H53.4553L55.6703 52.2655V34.6095L53.4603 32.3984ZM46.8103 42.0375L43.9783 39.2175L46.8103 36.3975L49.6423 39.2175L46.8103 42.0375Z" fill="white"/>
<path d="M20.215 32.3496L18 34.5607V43.3887L20.215 45.5946H29.08V50.0056H24.65V47.7997H18V52.2167L20.215 54.4226H33.515L35.73 52.2167V43.3887L33.515 41.1776H24.65V36.7656H29.08V38.9717H35.73V34.5607L33.515 32.3496H20.215Z" fill="white"/>
</g>
<defs>
<filter id="filter0_d_768_16948" x="-4" y="0" width="185" height="88" filterUnits="userSpaceOnUse" color-interpolation-filters="sRGB">
<feFlood flood-opacity="0" result="BackgroundImageFix"/>
<feColorMatrix in="SourceAlpha" type="matrix" values="0 0 0 0 0 0 0 0 0 0 0 0 0 0 0 0 0 0 127 0" result="hardAlpha"/>
<feOffset dy="4"/>
<feGaussianBlur stdDeviation="2"/>
<feComposite in2="hardAlpha" operator="out"/>
<feColorMatrix type="matrix" values="0 0 0 0 0 0 0 0 0 0 0 0 0 0 0 0 0 0 0.25 0"/>
<feBlend mode="normal" in2="BackgroundImageFix" result="effect1_dropShadow_768_16948"/>
<feBlend mode="normal" in="SourceGraphic" in2="effect1_dropShadow_768_16948" result="shape"/>
</filter>
</defs>
</svg>
